<?xml version="1.0" encoding="utf-8"?>
<!-- Generator: Adobe Illustrator 24.1.2, SVG Export Plug-In . SVG Version: 6.00 Build 0)  -->
<svg version="1.1" id="Layer_1" xmlns="http://www.w3.org/2000/svg" xmlns:xlink="http://www.w3.org/1999/xlink" x="0px" y="0px"
	 viewBox="0 0 195 49" style="enable-background:new 0 0 195 49;" xml:space="preserve">
<style type="text/css">
	.st0{fill:#0F4C82;}
	.st1{fill-rule:evenodd;clip-rule:evenodd;fill:#0F4C82;}
	.st2{fill:#F26B5B;}
</style>
<path class="st0" d="M81.7,24.1c1.4,0.3,2.6,1,3.5,2.1c0.9,1.2,1.4,2.5,1.4,4c0,1.3-0.3,2.5-1,3.6c-0.6,1-1.6,1.8-2.8,2.4
	S80,37,78.3,37H67.5V11.9h10.4c1.7,0,3.2,0.3,4.4,0.8c1.2,0.6,2.2,1.3,2.8,2.3c0.6,1,1,2.1,1,3.3c0,1.5-0.4,2.7-1.2,3.7
	C84.1,23,83,23.7,81.7,24.1z M72.5,22.3h4.6c1.2,0,2.1-0.3,2.8-0.8s1-1.3,1-2.4s-0.3-1.8-1-2.4c-0.6-0.6-1.6-0.9-2.7-0.9h-4.6V22.3z
	 M77.6,33c1.2,0,2.2-0.3,2.8-0.9c0.7-0.6,1-1.5,1-2.6c0-1.1-0.4-1.9-1.1-2.6c-0.7-0.6-1.7-0.9-2.9-0.9h-5V33H77.6z M109.4,17.1V37
	h-5.1v-2.5c-0.6,0.9-1.5,1.5-2.6,2.1c-1,0.5-2.2,0.7-3.4,0.7c-1.6,0-2.9-0.3-4.1-1c-1.2-0.7-2.1-1.6-2.8-2.9c-0.7-1.3-1-2.8-1-4.6
	V17.1h5v11c0,1.6,0.4,2.8,1.2,3.7c0.8,0.8,1.9,1.3,3.2,1.3c1.4,0,2.5-0.4,3.3-1.3c0.8-0.9,1.2-2.1,1.2-3.7v-11H109.4z M119,32.9h8.9
	V37h-14.6v-4.1l8.7-11.7h-8.7v-4.1h14.5v4.1L119,32.9z M136.4,32.9h8.9V37h-14.6v-4.1l8.7-11.7h-8.7v-4.1h14.5v4.1L136.4,32.9z
	 M167.8,26.6c0,0.7,0,1.3-0.1,1.9H153c0.1,1.5,0.6,2.6,1.5,3.5c0.9,0.8,2,1.3,3.3,1.3c1.9,0,3.2-0.8,4-2.4h5.4
	c-0.6,1.9-1.7,3.5-3.3,4.8c-1.6,1.2-3.6,1.8-6,1.8c-1.9,0-3.6-0.4-5.2-1.3c-1.5-0.9-2.7-2.1-3.6-3.6c-0.8-1.6-1.3-3.4-1.3-5.4
	c0-2.1,0.4-3.9,1.3-5.4c0.8-1.6,2-2.8,3.5-3.6c1.5-0.8,3.3-1.3,5.2-1.3c1.9,0,3.6,0.4,5.1,1.2c1.5,0.8,2.7,2,3.5,3.5
	C167.3,22.9,167.8,24.6,167.8,26.6z M162.5,25.4c0-1.4-0.5-2.5-1.4-3.3c-0.9-0.8-2-1.2-3.3-1.2c-1.3,0-2.3,0.4-3.2,1.2
	c-0.9,0.8-1.4,1.9-1.5,3.3H162.5z M176.5,20.6c0.6-1.2,1.5-2.1,2.5-2.8c1.1-0.7,2.3-1,3.6-1v5.3h-1.3c-1.6,0-2.8,0.4-3.6,1.1
	c-0.8,0.7-1.2,2-1.2,3.9V37h-5V17.1h5V20.6z"/>
<path class="st1" d="M12.6,25.8L12,27.5c-0.6,1-1,2-1,3.1C11,36.4,20.4,41,32,41s21-4.6,21-10.4c0-1.1-0.3-2.2-1-3.1l-0.6-1.7
	c-2.1,4.5-10,7.9-19.4,7.9S14.7,30.4,12.6,25.8z"/>
<ellipse class="st2" cx="32" cy="22.3" rx="17.8" ry="9.3"/>
</svg>
